<svg xmlns="http://www.w3.org/2000/svg" viewBox="0 0 1200 360" width="1200" height="360">
  <defs>
    <pattern id="grid" width="24" height="24" patternUnits="userSpaceOnUse">
      <path d="M24 0H0V24" fill="none" stroke="#fff" stroke-opacity=".045"/>
    </pattern>
    <radialGradient id="glow" cx="78%" cy="48%" r="48%">
      <stop offset="0" stop-color="#19a8b5" stop-opacity=".18"/>
      <stop offset="1" stop-color="#19a8b5" stop-opacity="0"/>
    </radialGradient>
    <linearGradient id="panel" x1="0" x2="1">
      <stop stop-color="#112d40"/>
      <stop offset="1" stop-color="#0b2234"/>
    </linearGradient>
  </defs>

  <rect width="1200" height="360" fill="#061a28"/>
  <rect width="1200" height="360" fill="url(#grid)"/>
  <rect width="1200" height="360" fill="url(#glow)"/>
  <rect x="24" y="24" width="1152" height="312" rx="14" fill="none" stroke="#fff" stroke-opacity=".14"/>

  <g transform="translate(42 35) scale(.22) translate(-235 -225)">
    <path fill="#f7f5ee" d="M301 263V300H383A21 21 0 0 1 404 321A21 21 0 0 1 383 342H333V312H301V342H267V376H301V440H333V376H383A56 56 0 0 0 439 320A56 56 0 0 0 383 264H301Z"/>
    <path fill="#19a8b5" d="M349 400L366 383L392 407L453 346L470 363L392 441Z"/>
  </g>
  <text x="103" y="70" fill="#f7f5ee" font-family="'Segoe UI',Arial,sans-serif" font-size="26" font-weight="700">ProtoTest</text>
  <text x="48" y="112" fill="#19a8b5" font-family="Consolas,monospace" font-size="12" font-weight="700" letter-spacing="2.1">COMPOSABLE INTEGRATION TESTING FOR .NET</text>

  <text x="48" y="174" fill="#dceaf3" font-family="'Segoe UI',Arial,sans-serif" font-size="38" font-weight="700" letter-spacing="-1.2">Test the whole journey.</text>
  <text x="48" y="220" fill="#19a8b5" font-family="'Segoe UI',Arial,sans-serif" font-size="38" font-weight="700" letter-spacing="-1.2">Trace every layer.</text>
  <text x="49" y="263" fill="#90aec2" font-family="'Segoe UI',Arial,sans-serif" font-size="16">A composable foundation, powered by one shared runtime.</text>
  <text x="49" y="299" fill="#7899ad" font-family="Consolas,monospace" font-size="12" letter-spacing=".6">.NET 8 · 9 · 10   /   OPEN SOURCE · MIT</text>

  <g font-family="Consolas,monospace">
    <path d="M838 88V111M838 172V193M838 254V277" stroke="#19a8b5" stroke-width="2"/>
    <g transform="translate(669 50)">
      <rect width="338" height="38" rx="7" fill="#0a1f2f" stroke="#3a9fd6" stroke-opacity=".8"/>
      <text x="16" y="16" fill="#65b8e3" font-size="9" font-weight="700" letter-spacing="1.4">ONE TEST JOURNEY</text>
      <text x="16" y="30" fill="#dceaf3" font-size="12">REST → event → database → browser</text>
    </g>
    <g transform="translate(623 111)">
      <rect width="430" height="61" rx="9" fill="url(#panel)" stroke="#19a8b5"/>
      <text x="18" y="21" fill="#19a8b5" font-size="9" font-weight="700" letter-spacing="1.4">SHARED RUNTIME</text>
      <text x="18" y="44" fill="#f7f5ee" font-family="'Segoe UI',Arial,sans-serif" font-size="19" font-weight="700">ProtoExecutionContext</text>
      <text x="407" y="37" fill="#90aec2" font-size="10" text-anchor="end">per test</text>
    </g>
    <g transform="translate(603 193)" font-size="9" font-weight="700" text-anchor="middle">
      <g><rect width="92" height="39" rx="7" fill="#102b3e" stroke="#3a9fd6" stroke-opacity=".65"/><text x="46" y="24" fill="#8fc8e6">LIFECYCLE</text></g>
      <g transform="translate(100)"><rect width="92" height="39" rx="7" fill="#102b3e" stroke="#19a8b5" stroke-opacity=".75"/><text x="46" y="24" fill="#75d0d8">CONTEXT</text></g>
      <g transform="translate(200)"><rect width="92" height="39" rx="7" fill="#102b3e" stroke="#35b985" stroke-opacity=".65"/><text x="46" y="24" fill="#7ed0aa">CLEANUP</text></g>
      <g transform="translate(300)"><rect width="92" height="39" rx="7" fill="#102b3e" stroke="#a58bd5" stroke-opacity=".7"/><text x="46" y="24" fill="#b9a7df">EVIDENCE</text></g>
      <g transform="translate(400)"><rect width="92" height="39" rx="7" fill="#102b3e" stroke="#d1a45c" stroke-opacity=".65"/><text x="46" y="24" fill="#dbbc87">COVERAGE</text></g>
    </g>
    <g transform="translate(648 254)">
      <rect width="380" height="58" rx="8" fill="#04131d" stroke="#19a8b5"/>
      <text x="17" y="20" fill="#7b9cad" font-size="9" font-weight="700" letter-spacing="1.3">PORTABLE EXECUTION STORY</text>
      <text x="17" y="43" fill="#19a8b5" font-size="17" font-weight="700">run.prototrace</text>
      <text x="362" y="39" fill="#90aec2" font-size="10" text-anchor="end">checks · artifacts · findings</text>
    </g>
  </g>
</svg>
